NotoSerifBengali-Black.ufo
<glyph name="comma" format="2">
  <advance width="355"/>
  <unicode hex="002C"/>
  <outline>
    <contour>
      <point x="107" y="-154" type="line"/>
      <point x="238" y="-119"/>
      <point x="287" y="-43"/>
      <point x="287" y="42" type="curve" smooth="yes"/>
      <point x="287" y="111"/>
      <point x="255" y="153"/>
      <point x="198" y="153" type="curve" smooth="yes"/>
      <point x="157" y="153"/>
      <point x="122" y="129"/>
      <point x="122" y="83" type="curve" smooth="yes"/>
      <point x="122" y="3"/>
      <point x="195" y="14"/>
      <point x="195" y="-24" type="curve" smooth="yes"/>
      <point x="195" y="-61"/>
      <point x="166" y="-81"/>
      <point x="107" y="-102" type="curve"/>
    </contour>
  </outline>
</glyph>
<glyph name="divide" format="2">
  <advance width="559"/>
  <unicode hex="00F7"/>
  <outline>
    <contour>
      <point x="65" y="322" type="line"/>
      <point x="494" y="322" type="line"/>
      <point x="494" y="393" type="line"/>
      <point x="65" y="393" type="line"/>
    </contour>
    <contour>
      <point x="280" y="107" type="curve" smooth="yes"/>
      <point x="311" y="107"/>
      <point x="336" y="123"/>
      <point x="336" y="168" type="curve" smooth="yes"/>
      <point x="336" y="214"/>
      <point x="311" y="229"/>
      <point x="280" y="229" type="curve" smooth="yes"/>
      <point x="248" y="229"/>
      <point x="224" y="214"/>
      <point x="224" y="168" type="curve" smooth="yes"/>
      <point x="224" y="123"/>
      <point x="248" y="107"/>
    </contour>
    <contour>
      <point x="280" y="486" type="curve" smooth="yes"/>
      <point x="311" y="486"/>
      <point x="336" y="502"/>
      <point x="336" y="547" type="curve" smooth="yes"/>
      <point x="336" y="593"/>
      <point x="311" y="608"/>
      <point x="280" y="608" type="curve" smooth="yes"/>
      <point x="248" y="608"/>
      <point x="224" y="593"/>
      <point x="224" y="547" type="curve" smooth="yes"/>
      <point x="224" y="502"/>
      <point x="248" y="486"/>
    </contour>
  </outline>
</glyph>
<glyph name="i-beng" format="2">
  <advance width="538"/>
  <unicode hex="0987"/>
  <anchor x="330" y="25" name="bottom"/>
  <anchor x="463" y="-100" name="bottom.rakaar"/>
  <anchor x="423" y="18" name="bottom.rvocalic"/>
  <anchor x="323" y="30" name="bottom.virama"/>
  <anchor x="367" y="605" name="top"/>
  <anchor x="315" y="604" name="topright"/>
  <anchor x="269" y="0" name="vedic"/>
  <outline>
    <contour>
      <point x="420" y="588" type="curve"/>
      <point x="492" y="588" type="line"/>
      <point x="489" y="737"/>
      <point x="426" y="831"/>
      <point x="320" y="831" type="curve" smooth="yes"/>
      <point x="256" y="831"/>
      <point x="218" y="822"/>
      <point x="159" y="822" type="curve" smooth="yes"/>
      <point x="82" y="822"/>
      <point x="58" y="847"/>
      <point x="58" y="897" type="curve" smooth="yes"/>
      <point x="58" y="910"/>
      <point x="59" y="926"/>
      <point x="61" y="938" type="curve"/>
      <point x="3" y="945" type="line"/>
      <point x="-3" y="919"/>
      <point x="-7" y="888"/>
      <point x="-7" y="851" type="curve" smooth="yes"/>
      <point x="-7" y="748"/>
      <point x="56" y="682"/>
      <point x="166" y="682" type="curve" smooth="yes"/>
      <point x="245" y="682"/>
      <point x="292" y="694"/>
      <point x="338" y="694" type="curve" smooth="yes"/>
      <point x="389" y="694"/>
      <point x="421" y="676"/>
    </contour>
    <component base="ha-beng"/>
  </outline>
</glyph>
<glyph name="ai-beng" format="2">
  <advance width="811"/>
  <unicode hex="0990"/>
  <anchor x="583" y="606" name="top"/>
  <anchor x="530" y="596" name="topright"/>
  <anchor x="405" y="0" name="vedic"/>
  <anchor x="633" y="0" name="bottom"/>
  <anchor x="633" y="-10" name="bottom.rvocalic"/>
  <anchor x="613" y="10" name="bottom.virama"/>
  <outline>
    <contour>
      <point x="618" y="280" type="line"/>
      <point x="701" y="356"/>
      <point x="756" y="441"/>
      <point x="756" y="561" type="curve" smooth="yes"/>
      <point x="756" y="768"/>
      <point x="594" y="790"/>
      <point x="451" y="810" type="curve" smooth="yes"/>
      <point x="338" y="826"/>
      <point x="238" y="840"/>
      <point x="238" y="933" type="curve" smooth="yes"/>
      <point x="238" y="962"/>
      <point x="246" y="995"/>
      <point x="261" y="1025" type="curve"/>
      <point x="191" y="1047" type="line"/>
      <point x="167" y="1000"/>
      <point x="152" y="955"/>
      <point x="152" y="894" type="curve" smooth="yes"/>
      <point x="152" y="733"/>
      <point x="302" y="707"/>
      <point x="442" y="690" type="curve" smooth="yes"/>
      <point x="566" y="675"/>
      <point x="679" y="663"/>
      <point x="679" y="549" type="curve" smooth="yes"/>
      <point x="679" y="486"/>
      <point x="657" y="441"/>
      <point x="591" y="392" type="curve"/>
    </contour>
    <component base="e-beng"/>
  </outline>
</glyph>
<glyph name="au-beng" format="2">
  <advance width="826"/>
  <unicode hex="0994"/>
  <anchor x="612" y="-16" name="bottom"/>
  <anchor x="679" y="-1" name="bottom.rakaar"/>
  <anchor x="599" y="12" name="bottom.rvocalic"/>
  <anchor x="534" y="-1" name="bottom.virama"/>
  <anchor x="643" y="606" name="top"/>
  <anchor x="580" y="596" name="topright"/>
  <anchor x="413" y="0" name="vedic"/>
  <outline>
    <contour>
      <point x="633" y="300" type="line"/>
      <point x="716" y="376"/>
      <point x="771" y="451"/>
      <point x="771" y="561" type="curve" smooth="yes"/>
      <point x="771" y="768"/>
      <point x="609" y="790"/>
      <point x="466" y="810" type="curve" smooth="yes"/>
      <point x="353" y="826"/>
      <point x="253" y="840"/>
      <point x="253" y="933" type="curve" smooth="yes"/>
      <point x="253" y="962"/>
      <point x="261" y="995"/>
      <point x="276" y="1025" type="curve"/>
      <point x="206" y="1047" type="line"/>
      <point x="182" y="1000"/>
      <point x="167" y="955"/>
      <point x="167" y="894" type="curve" smooth="yes"/>
      <point x="167" y="733"/>
      <point x="317" y="707"/>
      <point x="457" y="690" type="curve" smooth="yes"/>
      <point x="581" y="675"/>
      <point x="695" y="659"/>
      <point x="695" y="545" type="curve" smooth="yes"/>
      <point x="695" y="482"/>
      <point x="672" y="441"/>
      <point x="606" y="392" type="curve"/>
    </contour>
    <component base="o-beng"/>
  </outline>
</glyph>
<glyph name="nukta-beng" format="2">
  <unicode hex="09BC"/>
  <anchor x="0" y="-137" name="_nukta"/>
  <outline>
    <contour>
      <point x="0" y="-220" type="curve" smooth="yes"/>
      <point x="45" y="-220"/>
      <point x="84" y="-188"/>
      <point x="84" y="-137" type="curve" smooth="yes"/>
      <point x="84" y="-87"/>
      <point x="46" y="-53"/>
      <point x="0" y="-53" type="curve" smooth="yes"/>
      <point x="-47" y="-53"/>
      <point x="-85" y="-87"/>
      <point x="-85" y="-137" type="curve" smooth="yes"/>
      <point x="-85" y="-186"/>
      <point x="-46" y="-220"/>
    </contour>
  </outline>
</glyph>
<glyph name="rVocalicMatra-beng" format="2">
  <unicode hex="09C3"/>
  <anchor x="0" y="0" name="_bottom.rvocalic"/>
  <outline>
    <contour>
      <point x="26" y="-312" type="curve"/>
      <point x="57" y="-265" type="line"/>
      <point x="26" y="-221"/>
      <point x="-66" y="-140"/>
      <point x="-165" y="-90" type="curve"/>
      <point x="-152" y="-125" type="line"/>
      <point x="-115" y="-97"/>
      <point x="-50" y="-63"/>
      <point x="0" y="-40" type="curve"/>
      <point x="0" y="-11" type="line"/>
      <point x="-77" y="62" type="line"/>
      <point x="-147" y="30"/>
      <point x="-250" y="-23"/>
      <point x="-324" y="-76" type="curve"/>
      <point x="-248" y="-171" type="line"/>
      <point x="-134" y="-203"/>
      <point x="-44" y="-251"/>
    </contour>
  </outline>
</glyph>
<glyph name="four-beng" format="2">
  <advance width="577"/>
  <unicode hex="09EA"/>
  <outline>
    <contour>
      <point x="298" y="-41" type="curve" smooth="yes"/>
      <point x="443" y="-41"/>
      <point x="527" y="32"/>
      <point x="527" y="130" type="curve" smooth="yes"/>
      <point x="527" y="221"/>
      <point x="451" y="267"/>
      <point x="355" y="308" type="curve"/>
      <point x="301" y="259" type="line"/>
      <point x="359" y="235"/>
      <point x="392" y="192"/>
      <point x="392" y="149" type="curve" smooth="yes"/>
      <point x="392" y="96"/>
      <point x="330" y="61"/>
      <point x="272" y="61" type="curve" smooth="yes"/>
      <point x="213" y="61"/>
      <point x="181" y="81"/>
      <point x="181" y="119" type="curve" smooth="yes"/>
      <point x="181" y="165"/>
      <point x="242" y="180"/>
      <point x="354" y="236" type="curve" smooth="yes"/>
      <point x="472" y="295"/>
      <point x="511" y="343"/>
      <point x="511" y="437" type="curve" smooth="yes"/>
      <point x="511" y="553"/>
      <point x="397" y="617"/>
      <point x="276" y="617" type="curve" smooth="yes"/>
      <point x="139" y="617"/>
      <point x="69" y="541"/>
      <point x="69" y="454" type="curve" smooth="yes"/>
      <point x="69" y="350"/>
      <point x="173" y="312"/>
      <point x="227" y="285" type="curve"/>
      <point x="269" y="339" type="line"/>
      <point x="235" y="360"/>
      <point x="208" y="395"/>
      <point x="208" y="443" type="curve" smooth="yes"/>
      <point x="208" y="491"/>
      <point x="246" y="520"/>
      <point x="301" y="520" type="curve" smooth="yes"/>
      <point x="362" y="520"/>
      <point x="389" y="497"/>
      <point x="389" y="466" type="curve" smooth="yes"/>
      <point x="389" y="431"/>
      <point x="352" y="410"/>
      <point x="250" y="362" type="curve" smooth="yes"/>
      <point x="107" y="295"/>
      <point x="50" y="245"/>
      <point x="50" y="149" type="curve" smooth="yes"/>
      <point x="50" y="19"/>
      <point x="175" y="-41"/>
    </contour>
  </outline>
</glyph>
<glyph name="fourNumr-beng" format="2">
  <advance width="379"/>
  <unicode hex="09F7"/>
  <outline>
    <contour>
      <point x="281" y="-47" type="curve" smooth="yes"/>
      <point x="345" y="-47"/>
      <point x="379" y="-11"/>
      <point x="379" y="47" type="curve" smooth="yes"/>
      <point x="379" y="104"/>
      <point x="340" y="138"/>
      <point x="295" y="138" type="curve" smooth="yes"/>
      <point x="240" y="138"/>
      <point x="221" y="95"/>
      <point x="220" y="64" type="curve"/>
      <point x="272" y="55" type="line"/>
      <point x="272" y="496" type="line" smooth="yes"/>
      <point x="272" y="579"/>
      <point x="231" y="639"/>
      <point x="150" y="639" type="curve" smooth="yes"/>
      <point x="87" y="639"/>
      <point x="50" y="602"/>
      <point x="50" y="545" type="curve" smooth="yes"/>
      <point x="50" y="488"/>
      <point x="89" y="454"/>
      <point x="134" y="454" type="curve" smooth="yes"/>
      <point x="189" y="454"/>
      <point x="208" y="497"/>
      <point x="209" y="528" type="curve"/>
      <point x="157" y="537" type="line"/>
      <point x="157" y="100" type="line" smooth="yes"/>
      <point x="157" y="17"/>
      <point x="200" y="-47"/>
    </contour>
  </outline>
</glyph>
<glyph name="uni09FD" format="2">
  <advance width="482"/>
  <unicode hex="09FD"/>
  <outline>
    <contour>
      <point x="228" y="270" type="curve" smooth="yes"/>
      <point x="278" y="270"/>
      <point x="326" y="293"/>
      <point x="359" y="328" type="curve" smooth="yes"/>
      <point x="385" y="356"/>
      <point x="402" y="391"/>
      <point x="402" y="428" type="curve" smooth="yes"/>
      <point x="402" y="512"/>
      <point x="340" y="569"/>
      <point x="250" y="569" type="curve" smooth="yes"/>
      <point x="205" y="569"/>
      <point x="164" y="552"/>
      <point x="133" y="524" type="curve" smooth="yes"/>
      <point x="101" y="495"/>
      <point x="80" y="455"/>
      <point x="80" y="412" type="curve" smooth="yes"/>
      <point x="80" y="328"/>
      <point x="141" y="270"/>
    </contour>
    <contour>
      <point x="245" y="345" type="curve" smooth="yes"/>
      <point x="205" y="345"/>
      <point x="180" y="380"/>
      <point x="180" y="430" type="curve" smooth="yes"/>
      <point x="180" y="469"/>
      <point x="200" y="496"/>
      <point x="237" y="496" type="curve" smooth="yes"/>
      <point x="277" y="496"/>
      <point x="302" y="460"/>
      <point x="302" y="410" type="curve" smooth="yes"/>
      <point x="302" y="371"/>
      <point x="284" y="345"/>
    </contour>
  </outline>
</glyph>
<glyph name="uni09FE" format="2">
  <unicode hex="09FE"/>
  <outline>
    <contour>
      <point x="139" y="919" type="curve"/>
      <point x="170" y="956" type="line"/>
      <point x="111" y="1006"/>
      <point x="38" y="1046"/>
      <point x="-37" y="1059" type="curve"/>
      <point x="-67" y="1026" type="line"/>
      <point x="-56" y="1021"/>
      <point x="-39" y="1017"/>
      <point x="-21" y="1017" type="curve" smooth="yes"/>
      <point x="80" y="1017"/>
      <point x="129" y="1059"/>
      <point x="129" y="1120" type="curve" smooth="yes"/>
      <point x="129" y="1176"/>
      <point x="84" y="1226"/>
      <point x="-18" y="1226" type="curve" smooth="yes"/>
      <point x="-93" y="1226"/>
      <point x="-122" y="1204"/>
      <point x="-122" y="1164" type="curve" smooth="yes"/>
      <point x="-122" y="1121"/>
      <point x="-91" y="1103"/>
      <point x="-48" y="1103" type="curve" smooth="yes"/>
      <point x="-3" y="1103"/>
      <point x="21" y="1123"/>
      <point x="21" y="1176" type="curve" smooth="yes"/>
      <point x="21" y="1208"/>
      <point x="-3" y="1251"/>
      <point x="-39" y="1273" type="curve"/>
      <point x="-199" y="1273" type="line"/>
      <point x="-174" y="1226" type="line"/>
      <point x="-73" y="1226" type="line"/>
      <point x="-89" y="1239" type="line"/>
      <point x="-135" y="1246" type="line"/>
      <point x="-97" y="1233"/>
      <point x="-69" y="1218"/>
      <point x="-48" y="1197" type="curve"/>
      <point x="-42" y="1153" type="line"/>
      <point x="-32" y="1162"/>
      <point x="-7" y="1172"/>
      <point x="7" y="1172" type="curve" smooth="yes"/>
      <point x="39" y="1172"/>
      <point x="55" y="1157"/>
      <point x="55" y="1137" type="curve" smooth="yes"/>
      <point x="55" y="1103"/>
      <point x="18" y="1085"/>
      <point x="-37" y="1085" type="curve" smooth="yes"/>
      <point x="-72" y="1085"/>
      <point x="-103" y="1092"/>
      <point x="-131" y="1102" type="curve"/>
      <point x="-112" y="1013" type="line"/>
      <point x="-25" y="1005"/>
      <point x="48" y="977"/>
    </contour>
  </outline>
</glyph>
<glyph name="uni1CD6" format="2">
  <unicode hex="1CD6"/>
  <note>
uni1CD6
</note>
  <anchor x="-299" y="440" name="_vedic"/>
  <outline>
    <contour>
      <point x="-453" y="-276" type="line"/>
      <point x="-63" y="-276" type="line"/>
      <point x="-132" y="-190" type="line"/>
      <point x="-410" y="-190" type="line"/>
      <point x="-410" y="-108" type="line"/>
      <point x="-525" y="-51" type="line"/>
      <point x="-525" y="-190" type="line"/>
    </contour>
  </outline>
</glyph>
<glyph name="uni1CD8" format="2">
  <unicode hex="1CD8"/>
  <note>
uni1CD8
</note>
  <anchor x="-299" y="440" name="_vedic"/>
  <outline>
    <contour>
      <point x="-286" y="-271" type="curve" smooth="yes"/>
      <point x="-184" y="-271"/>
      <point x="-110" y="-206"/>
      <point x="-86" y="-92" type="curve"/>
      <point x="-205" y="-59" type="line"/>
      <point x="-227" y="-139"/>
      <point x="-255" y="-179"/>
      <point x="-328" y="-179" type="curve" smooth="yes"/>
      <point x="-400" y="-179"/>
      <point x="-437" y="-135"/>
      <point x="-457" y="-57" type="curve"/>
      <point x="-518" y="-72" type="line"/>
      <point x="-482" y="-217"/>
      <point x="-412" y="-271"/>
    </contour>
  </outline>
</glyph>
<glyph name="uni1CED" format="2">
  <unicode hex="1CED"/>
  <note>
uni1CED
</note>
  <anchor x="-299" y="440" name="_vedic"/>
  <outline>
    <contour>
      <point x="-445" y="-140" type="line"/>
      <point x="-160" y="-335" type="line"/>
      <point x="-98" y="-261" type="line"/>
      <point x="-370" y="-53" type="line"/>
    </contour>
  </outline>
</glyph>
<glyph name="uni1CF2" format="2">
  <advance width="580"/>
  <unicode hex="1CF2"/>
  <note>
uni1CF2
</note>
  <anchor x="-248" y="0" name="vedic"/>
  <outline>
    <contour>
      <point x="289" y="291" type="curve" smooth="yes"/>
      <point x="423" y="291"/>
      <point x="517" y="366"/>
      <point x="541" y="490" type="curve"/>
      <point x="399" y="527" type="line"/>
      <point x="386" y="453"/>
      <point x="342" y="403"/>
      <point x="259" y="403" type="curve" smooth="yes"/>
      <point x="184" y="403"/>
      <point x="134" y="452"/>
      <point x="121" y="527" type="curve"/>
      <point x="39" y="505" type="line"/>
      <point x="63" y="371"/>
      <point x="153" y="291"/>
    </contour>
    <contour>
      <point x="181" y="29" type="line"/>
      <point x="195" y="103"/>
      <point x="241" y="153"/>
      <point x="327" y="153" type="curve" smooth="yes"/>
      <point x="399" y="153"/>
      <point x="447" y="104"/>
      <point x="459" y="29" type="curve"/>
      <point x="541" y="51" type="line"/>
      <point x="517" y="185"/>
      <point x="427" y="265"/>
      <point x="291" y="265" type="curve" smooth="yes"/>
      <point x="157" y="265"/>
      <point x="63" y="190"/>
      <point x="39" y="66" type="curve"/>
    </contour>
  </outline>
</glyph>
<glyph name="ellipsis" format="2">
  <advance width="966"/>
  <unicode hex="2026"/>
  <outline>
    <contour>
      <point x="819" y="-8" type="curve" smooth="yes"/>
      <point x="863" y="-8"/>
      <point x="902" y="12"/>
      <point x="902" y="72" type="curve" smooth="yes"/>
      <point x="902" y="134"/>
      <point x="863" y="153"/>
      <point x="819" y="153" type="curve" smooth="yes"/>
      <point x="772" y="153"/>
      <point x="736" y="134"/>
      <point x="736" y="72" type="curve" smooth="yes"/>
      <point x="736" y="12"/>
      <point x="772" y="-8"/>
    </contour>
    <contour>
      <point x="210" y="-8" type="curve" smooth="yes"/>
      <point x="254" y="-8"/>
      <point x="292" y="12"/>
      <point x="292" y="72" type="curve" smooth="yes"/>
      <point x="292" y="134"/>
      <point x="254" y="153"/>
      <point x="210" y="153" type="curve" smooth="yes"/>
      <point x="163" y="153"/>
      <point x="127" y="134"/>
      <point x="127" y="72" type="curve" smooth="yes"/>
      <point x="127" y="12"/>
      <point x="163" y="-8"/>
    </contour>
    <contour>
      <point x="515" y="-8" type="curve" smooth="yes"/>
      <point x="559" y="-8"/>
      <point x="597" y="12"/>
      <point x="597" y="72" type="curve" smooth="yes"/>
      <point x="597" y="134"/>
      <point x="559" y="153"/>
      <point x="515" y="153" type="curve" smooth="yes"/>
      <point x="468" y="153"/>
      <point x="432" y="134"/>
      <point x="432" y="72" type="curve" smooth="yes"/>
      <point x="432" y="12"/>
      <point x="468" y="-8"/>
    </contour>
  </outline>
</glyph>
<glyph name="rupeeIndian" format="2">
  <advance width="559"/>
  <unicode hex="20B9"/>
  <outline>
    <contour>
      <point x="419" y="3" type="curve" smooth="yes"/>
      <point x="494" y="3" type="line"/>
      <point x="494" y="59" type="line"/>
      <point x="479" y="59" type="line" smooth="yes"/>
      <point x="445" y="59"/>
      <point x="406" y="89"/>
      <point x="361" y="146" type="curve" smooth="yes"/>
      <point x="218" y="326" type="line"/>
      <point x="325" y="331"/>
      <point x="400" y="387"/>
      <point x="419" y="475" type="curve"/>
      <point x="516" y="475" type="line"/>
      <point x="516" y="538" type="line"/>
      <point x="424" y="538" type="line"/>
      <point x="420" y="584"/>
      <point x="405" y="627"/>
      <point x="372" y="654" type="curve"/>
      <point x="516" y="654" type="line"/>
      <point x="516" y="717" type="line"/>
      <point x="38" y="717" type="line"/>
      <point x="38" y="654" type="line"/>
      <point x="79" y="654" type="line" smooth="yes"/>
      <point x="175" y="654"/>
      <point x="229" y="621"/>
      <point x="236" y="538" type="curve"/>
      <point x="41" y="538" type="line"/>
      <point x="41" y="475" type="line"/>
      <point x="234" y="475" type="line"/>
      <point x="224" y="395"/>
      <point x="187" y="362"/>
      <point x="90" y="362" type="curve" smooth="yes"/>
      <point x="38" y="362" type="line"/>
      <point x="38" y="308" type="line"/>
      <point x="196" y="103" type="line" smooth="yes"/>
      <point x="247" y="36"/>
      <point x="291" y="3"/>
    </contour>
  </outline>
</glyph>
<glyph name="aiMatra-beng.init" format="2">
  <advance width="427"/>
  <outline>
    <contour>
      <point x="351" y="588" type="curve"/>
      <point x="423" y="588" type="line"/>
      <point x="420" y="737"/>
      <point x="367" y="831"/>
      <point x="261" y="831" type="curve" smooth="yes"/>
      <point x="197" y="831"/>
      <point x="166" y="821"/>
      <point x="104" y="821" type="curve" smooth="yes"/>
      <point x="45" y="821"/>
      <point x="15" y="847"/>
      <point x="15" y="897" type="curve" smooth="yes"/>
      <point x="15" y="910"/>
      <point x="16" y="926"/>
      <point x="18" y="938" type="curve"/>
      <point x="-40" y="945" type="line"/>
      <point x="-46" y="919"/>
      <point x="-50" y="888"/>
      <point x="-50" y="859" type="curve" smooth="yes"/>
      <point x="-50" y="756"/>
      <point x="2" y="682"/>
      <point x="115" y="682" type="curve" smooth="yes"/>
      <point x="181" y="682"/>
      <point x="213" y="694"/>
      <point x="259" y="694" type="curve" smooth="yes"/>
      <point x="310" y="694"/>
      <point x="352" y="682"/>
    </contour>
    <component base="eMatra-beng.init"/>
  </outline>
</glyph>
<glyph name="assacross" format="2">
  <advance width="571"/>
  <anchor x="232" y="18" name="_nukta"/>
  <outline>
    <contour>
      <point x="387" y="175" type="curve"/>
      <point x="405" y="209" type="line"/>
      <point x="367" y="268"/>
      <point x="320" y="308"/>
      <point x="273" y="341" type="curve"/>
      <point x="224" y="302" type="line"/>
      <point x="273" y="277"/>
      <point x="328" y="238"/>
    </contour>
  </outline>
</glyph>
<glyph name="assastroke" format="2">
  <advance width="571"/>
  <anchor x="234" y="23" name="_nukta"/>
  <outline>
    <contour>
      <point x="344" y="-68" type="curve"/>
      <point x="378" y="-33" type="line"/>
      <point x="314" y="56"/>
      <point x="229" y="126"/>
      <point x="79" y="134" type="curve"/>
      <point x="113" y="32" type="line"/>
      <point x="215" y="18"/>
      <point x="282" y="-11"/>
    </contour>
  </outline>
</glyph>
<glyph name="b-beng" format="2">
  <advance width="461"/>
  <outline>
    <contour>
      <point x="390" y="96" type="line"/>
      <point x="400" y="98" type="line"/>
      <point x="400" y="536" type="line"/>
      <point x="500" y="536" type="line"/>
      <point x="450" y="622" type="line"/>
      <point x="-39" y="622" type="line"/>
      <point x="10" y="536" type="line"/>
      <point x="300" y="536" type="line"/>
      <point x="300" y="463" type="line"/>
      <point x="311" y="523" type="line"/>
      <point x="200" y="503"/>
      <point x="82" y="452"/>
      <point x="-2" y="401" type="curve"/>
      <point x="54" y="257" type="line"/>
      <point x="156" y="237"/>
      <point x="264" y="208"/>
      <point x="316" y="134" type="curve"/>
    </contour>
    <contour>
      <point x="300" y="189" type="line"/>
      <point x="316" y="203" type="line"/>
      <point x="258" y="321"/>
      <point x="161" y="334"/>
      <point x="85" y="353" type="curve"/>
      <point x="106" y="283" type="line"/>
      <point x="150" y="317"/>
      <point x="249" y="364"/>
      <point x="317" y="378" type="curve"/>
      <point x="300" y="421" type="line"/>
    </contour>
  </outline>
</glyph>
<glyph name="ba-beng.blwf" format="2">
  <anchor x="0" y="0" name="_bottom.rakaar"/>
  <anchor x="0" y="-194" name="bottom"/>
  <anchor x="0" y="-183" name="bottom.rvocalic"/>
  <outline>
    <contour>
      <point x="-11" y="-226" type="line"/>
      <point x="0" y="-223" type="line"/>
      <point x="0" y="74" type="line"/>
      <point x="-82" y="115" type="line"/>
      <point x="-170" y="88"/>
      <point x="-249" y="57"/>
      <point x="-323" y="16" type="curve"/>
      <point x="-271" y="-107" type="line"/>
      <point x="-198" y="-109"/>
      <point x="-125" y="-124"/>
      <point x="-70" y="-191" type="curve"/>
    </contour>
    <contour>
      <point x="-87" y="-135" type="line"/>
      <point x="-77" y="-130" type="line"/>
      <point x="-108" y="-61"/>
      <point x="-183" y="-34"/>
      <point x="-247" y="-20" type="curve"/>
      <point x="-229" y="-64" type="line"/>
      <point x="-188" y="-41"/>
      <point x="-113" y="-8"/>
      <point x="-74" y="3" type="curve"/>
      <point x="-87" y="30" type="line"/>
    </contour>
  </outline>
</glyph>
<glyph name="candrabindu-beng.alt" format="2">
  <anchor x="0" y="622" name="_topleft"/>
  <outline>
    <contour>
      <point x="-17" y="696" type="curve" smooth="yes"/>
      <point x="79" y="696"/>
      <point x="149" y="755"/>
      <point x="164" y="896" type="curve"/>
      <point x="115" y="912" type="line"/>
      <point x="97" y="833"/>
      <point x="48" y="800"/>
      <point x="-16" y="800" type="curve" smooth="yes"/>
      <point x="-80" y="800"/>
      <point x="-132" y="834"/>
      <point x="-150" y="912" type="curve"/>
      <point x="-198" y="896" type="line"/>
      <point x="-185" y="756"/>
      <point x="-113" y="696"/>
    </contour>
    <contour>
      <point x="-18" y="834" type="curve" smooth="yes"/>
      <point x="23" y="834"/>
      <point x="48" y="858"/>
      <point x="48" y="900" type="curve" smooth="yes"/>
      <point x="48" y="938"/>
      <point x="23" y="964"/>
      <point x="-18" y="964" type="curve" smooth="yes"/>
      <point x="-60" y="964"/>
      <point x="-85" y="939"/>
      <point x="-85" y="900" type="curve" smooth="yes"/>
      <point x="-85" y="858"/>
      <point x="-58" y="834"/>
    </contour>
  </outline>
</glyph>
<glyph name="d-beng" format="2">
  <advance width="486"/>
  <outline>
    <contour>
      <point x="348" y="106" type="curve"/>
      <point x="409" y="123" type="line"/>
      <point x="403" y="149"/>
      <point x="401" y="172"/>
      <point x="401" y="201" type="curve" smooth="yes"/>
      <point x="401" y="269"/>
      <point x="422" y="357"/>
      <point x="459" y="417" type="curve"/>
      <point x="342" y="511" type="line"/>
      <point x="270" y="473"/>
      <point x="184" y="413"/>
      <point x="134" y="359" type="curve"/>
      <point x="157" y="314" type="line"/>
      <point x="157" y="536" type="line"/>
      <point x="525" y="536" type="line"/>
      <point x="477" y="622" type="line"/>
      <point x="-39" y="622" type="line"/>
      <point x="10" y="536" type="line"/>
      <point x="54" y="536" type="line"/>
      <point x="54" y="260" type="line"/>
      <point x="159" y="190" type="line"/>
      <point x="225" y="255"/>
      <point x="309" y="332"/>
      <point x="387" y="384" type="curve"/>
      <point x="340" y="420" type="line"/>
      <point x="321" y="364"/>
      <point x="312" y="306"/>
      <point x="312" y="248" type="curve" smooth="yes"/>
      <point x="312" y="194"/>
      <point x="327" y="145"/>
    </contour>
  </outline>
</glyph>
<glyph name="ddhNukta_ra-beng" format="2">
  <advance width="539"/>
  <anchor x="474" y="-166" name="bottom"/>
  <anchor x="481" y="-194" name="bottom.rvocalic"/>
  <anchor x="461" y="-174" name="bottom.virama"/>
  <anchor x="211" y="592" name="top"/>
  <anchor x="212" y="572" name="topright"/>
  <outline>
    <contour>
      <point x="275" y="122" type="curve" smooth="yes"/>
      <point x="415" y="122"/>
      <point x="522" y="227"/>
      <point x="522" y="354" type="curve" smooth="yes"/>
      <point x="522" y="440"/>
      <point x="469" y="481"/>
      <point x="410" y="481" type="curve" smooth="yes"/>
      <point x="348" y="481"/>
      <point x="306" y="440"/>
      <point x="306" y="388" type="curve" smooth="yes"/>
      <point x="306" y="337"/>
      <point x="338" y="300"/>
      <point x="392" y="300" type="curve" smooth="yes"/>
      <point x="408" y="300"/>
      <point x="432" y="310"/>
      <point x="450" y="332" type="curve"/>
      <point x="380" y="365" type="line"/>
      <point x="377" y="249"/>
      <point x="289" y="230"/>
      <point x="259" y="230" type="curve" smooth="yes"/>
      <point x="236" y="230"/>
      <point x="226" y="239"/>
      <point x="226" y="262" type="curve" smooth="yes"/>
      <point x="226" y="536" type="line"/>
      <point x="578" y="536" type="line"/>
      <point x="533" y="622" type="line"/>
      <point x="-39" y="622" type="line"/>
      <point x="8" y="536" type="line"/>
      <point x="120" y="536" type="line"/>
      <point x="120" y="260" type="line" smooth="yes"/>
      <point x="120" y="184"/>
      <point x="203" y="122"/>
    </contour>
    <contour>
      <point x="470" y="-225" type="line"/>
      <point x="481" y="-222" type="line"/>
      <point x="481" y="253" type="line"/>
      <point x="396" y="175" type="line"/>
      <point x="396" y="15" type="line" smooth="yes"/>
      <point x="396" y="-17"/>
      <point x="398" y="-71"/>
      <point x="403" y="-109" type="curve"/>
      <point x="367" y="-59"/>
      <point x="339" y="-38"/>
      <point x="291" y="-38" type="curve" smooth="yes"/>
      <point x="253" y="-38"/>
      <point x="234" y="-44"/>
      <point x="195" y="-44" type="curve" smooth="yes"/>
      <point x="148" y="-44"/>
      <point x="107" y="-15"/>
      <point x="107" y="49" type="curve" smooth="yes"/>
      <point x="107" y="70"/>
      <point x="109" y="94"/>
      <point x="117" y="124" type="curve"/>
      <point x="61" y="134" type="line"/>
      <point x="50" y="96"/>
      <point x="39" y="53"/>
      <point x="39" y="3" type="curve" smooth="yes"/>
      <point x="39" y="-132"/>
      <point x="114" y="-164"/>
      <point x="187" y="-164" type="curve" smooth="yes"/>
      <point x="246" y="-164"/>
      <point x="286" y="-149"/>
      <point x="319" y="-149" type="curve" smooth="yes"/>
      <point x="348" y="-149"/>
      <point x="372" y="-157"/>
      <point x="402" y="-189" type="curve"/>
    </contour>
    <contour>
      <point x="269" y="-23" type="curve" smooth="yes"/>
      <point x="303" y="-23"/>
      <point x="332" y="1"/>
      <point x="332" y="40" type="curve" smooth="yes"/>
      <point x="332" y="78"/>
      <point x="304" y="103"/>
      <point x="269" y="103" type="curve" smooth="yes"/>
      <point x="233" y="103"/>
      <point x="205" y="78"/>
      <point x="205" y="40" type="curve" smooth="yes"/>
      <point x="205" y="2"/>
      <point x="234" y="-23"/>
    </contour>
  </outline>
</glyph>
<glyph name="ra-beng.blwf" format="2">
  <anchor x="0" y="0" name="_bottom.rakaar"/>
  <anchor x="0" y="-250" name="bottom"/>
  <anchor x="0" y="-260" name="bottom.rvocalic"/>
  <outline>
    <contour>
      <point x="-11" y="-291" type="line"/>
      <point x="0" y="-288" type="line"/>
      <point x="0" y="118" type="line"/>
      <point x="-115" y="118" type="line"/>
      <point x="-115" y="21" type="line" smooth="yes"/>
      <point x="-115" y="-36"/>
      <point x="-109" y="-114"/>
      <point x="-100" y="-152" type="curve"/>
      <point x="-147" y="-62"/>
      <point x="-200" y="-46"/>
      <point x="-263" y="-46" type="curve" smooth="yes"/>
      <point x="-310" y="-46"/>
      <point x="-357" y="-55"/>
      <point x="-416" y="-55" type="curve" smooth="yes"/>
      <point x="-474" y="-55"/>
      <point x="-530" y="-32"/>
      <point x="-530" y="53" type="curve" smooth="yes"/>
      <point x="-530" y="72"/>
      <point x="-528" y="99"/>
      <point x="-520" y="133" type="curve"/>
      <point x="-581" y="143" type="line"/>
      <point x="-596" y="95"/>
      <point x="-603" y="37"/>
      <point x="-603" y="-12" type="curve" smooth="yes"/>
      <point x="-603" y="-176"/>
      <point x="-507" y="-217"/>
      <point x="-408" y="-217" type="curve" smooth="yes"/>
      <point x="-325" y="-217"/>
      <point x="-259" y="-196"/>
      <point x="-200" y="-196" type="curve" smooth="yes"/>
      <point x="-163" y="-196"/>
      <point x="-115" y="-208"/>
      <point x="-79" y="-254" type="curve"/>
    </contour>
  </outline>
</glyph>
<glyph name="sh-beng" format="2">
  <advance width="447"/>
  <outline>
    <contour>
      <point x="118" y="213" type="curve" smooth="yes"/>
      <point x="178" y="213"/>
      <point x="221" y="253"/>
      <point x="237" y="305" type="curve"/>
      <point x="254" y="246"/>
      <point x="297" y="215"/>
      <point x="349" y="215" type="curve" smooth="yes"/>
      <point x="406" y="215"/>
      <point x="445" y="253"/>
      <point x="445" y="319" type="curve" smooth="yes"/>
      <point x="445" y="392"/>
      <point x="384" y="446"/>
      <point x="317" y="476" type="curve"/>
      <point x="329" y="436" type="line"/>
      <point x="342" y="464"/>
      <point x="366" y="491"/>
      <point x="399" y="491" type="curve" smooth="yes"/>
      <point x="443" y="491"/>
      <point x="488" y="438"/>
      <point x="527" y="353" type="curve"/>
      <point x="577" y="372" type="line"/>
      <point x="510" y="563"/>
      <point x="435" y="632"/>
      <point x="357" y="632" type="curve" smooth="yes"/>
      <point x="294" y="632"/>
      <point x="242" y="587"/>
      <point x="210" y="546" type="curve"/>
      <point x="174" y="588"/>
      <point x="136" y="622"/>
      <point x="75" y="622" type="curve" smooth="yes"/>
      <point x="-39" y="622" type="line"/>
      <point x="10" y="536" type="line"/>
      <point x="73" y="536" type="line" smooth="yes"/>
      <point x="113" y="536"/>
      <point x="153" y="515"/>
      <point x="175" y="475" type="curve"/>
      <point x="198" y="511" type="line"/>
      <point x="50" y="454"/>
      <point x="16" y="376"/>
      <point x="16" y="317" type="curve" smooth="yes"/>
      <point x="16" y="240"/>
      <point x="71" y="213"/>
    </contour>
  </outline>
</glyph>
<glyph name="tta_auLength-beng" format="2">
  <advance width="851"/>
  <anchor x="390" y="-3" name="bottom"/>
  <anchor x="470" y="0" name="bottom.rakaar"/>
  <anchor x="387" y="-3" name="bottom.rvocalic"/>
  <anchor x="332" y="20" name="bottom.virama"/>
  <anchor x="430" y="690" name="top"/>
  <anchor x="340" y="632" name="topright"/>
  <anchor x="425" y="0" name="vedic"/>
  <anchor x="259" y="-121" name="nukta"/>
  <outline>
    <contour>
      <point x="427" y="588" type="curve"/>
      <point x="499" y="588" type="line"/>
      <point x="498" y="636"/>
      <point x="489" y="692"/>
      <point x="472" y="727" type="curve"/>
      <point x="451" y="702" type="line"/>
      <point x="480" y="713"/>
      <point x="511" y="720"/>
      <point x="575" y="720" type="curve" smooth="yes"/>
      <point x="646" y="720"/>
      <point x="665" y="673"/>
      <point x="665" y="635" type="curve" smooth="yes"/>
      <point x="665" y="623"/>
      <point x="664" y="610"/>
      <point x="661" y="596" type="curve"/>
      <point x="769" y="596" type="line"/>
      <point x="766" y="743"/>
      <point x="669" y="843"/>
      <point x="543" y="843" type="curve" smooth="yes"/>
      <point x="437" y="843"/>
      <point x="348" y="808"/>
      <point x="191" y="808" type="curve" smooth="yes"/>
      <point x="107" y="808"/>
      <point x="71" y="837"/>
      <point x="71" y="900" type="curve" smooth="yes"/>
      <point x="71" y="911"/>
      <point x="73" y="924"/>
      <point x="75" y="938" type="curve"/>
      <point x="16" y="945" type="line"/>
      <point x="9" y="915"/>
      <point x="5" y="886"/>
      <point x="5" y="860" type="curve" smooth="yes"/>
      <point x="5" y="750"/>
      <point x="65" y="679"/>
      <point x="185" y="679" type="curve" smooth="yes"/>
      <point x="251" y="679"/>
      <point x="303" y="693"/>
      <point x="350" y="693" type="curve" smooth="yes"/>
      <point x="397" y="693"/>
      <point x="428" y="676"/>
    </contour>
    <contour>
      <point x="760" y="-43" type="line"/>
      <point x="771" y="-40" type="line"/>
      <point x="771" y="536" type="line"/>
      <point x="890" y="536" type="line"/>
      <point x="841" y="622" type="line"/>
      <point x="537" y="622" type="line"/>
      <point x="585" y="536" type="line"/>
      <point x="656" y="536" type="line"/>
      <point x="656" y="-1" type="line"/>
    </contour>
    <component base="ddha-beng"/>
  </outline>
</glyph>
<glyph name="uni1CF6.stack" format="2">
  <anchor x="-299" y="0" name="_vedic"/>
  <outline>
    <contour>
      <point x="-360" y="666" type="curve" smooth="yes"/>
      <point x="-284" y="666"/>
      <point x="-234" y="715"/>
      <point x="-234" y="838" type="curve" smooth="yes"/>
      <point x="-234" y="919" type="line"/>
      <point x="-345" y="950" type="line"/>
      <point x="-345" y="845" type="line" smooth="yes"/>
      <point x="-345" y="795"/>
      <point x="-361" y="756"/>
      <point x="-401" y="756" type="curve" smooth="yes"/>
      <point x="-421" y="756"/>
      <point x="-436" y="773"/>
      <point x="-436" y="804" type="curve" smooth="yes"/>
      <point x="-436" y="834"/>
      <point x="-420" y="870"/>
      <point x="-394" y="911" type="curve"/>
      <point x="-507" y="983" type="line"/>
      <point x="-531" y="950"/>
      <point x="-548" y="912"/>
      <point x="-548" y="875" type="curve" smooth="yes"/>
      <point x="-548" y="784"/>
      <point x="-460" y="666"/>
    </contour>
    <contour>
      <point x="-162" y="667" type="curve" smooth="yes"/>
      <point x="-97" y="667"/>
      <point x="-49" y="719"/>
      <point x="-49" y="804" type="curve" smooth="yes"/>
      <point x="-49" y="862"/>
      <point x="-69" y="916"/>
      <point x="-123" y="979" type="curve"/>
      <point x="-190" y="934" type="line"/>
      <point x="-163" y="900"/>
      <point x="-148" y="875"/>
      <point x="-148" y="835" type="curve" smooth="yes"/>
      <point x="-148" y="787"/>
      <point x="-172" y="762"/>
      <point x="-203" y="762" type="curve" smooth="yes"/>
      <point x="-239" y="762"/>
      <point x="-261" y="791"/>
      <point x="-284" y="844" type="curve"/>
      <point x="-325" y="824" type="line"/>
      <point x="-300" y="730"/>
      <point x="-239" y="667"/>
    </contour>
  </outline>
</glyph>
<glyph name="yNukta_ba-beng" format="2">
  <advance width="606"/>
  <anchor x="519" y="-261" name="bottom"/>
  <anchor x="526" y="-190" name="bottom.rakaar"/>
  <anchor x="526" y="-279" name="bottom.rvocalic"/>
  <anchor x="506" y="-270" name="bottom.virama"/>
  <anchor x="491" y="592" name="top"/>
  <anchor x="492" y="572" name="topright"/>
  <outline>
    <contour>
      <point x="429" y="64" type="curve"/>
      <point x="526" y="64" type="line"/>
      <point x="526" y="536" type="line"/>
      <point x="645" y="536" type="line"/>
      <point x="596" y="622" type="line"/>
      <point x="-39" y="622" type="line"/>
      <point x="55" y="441" type="line"/>
      <point x="133" y="433"/>
      <point x="211" y="415"/>
      <point x="243" y="390" type="curve"/>
      <point x="235" y="425" type="line"/>
      <point x="188" y="409"/>
      <point x="80" y="365"/>
      <point x="44" y="340" type="curve"/>
      <point x="117" y="185" type="line"/>
      <point x="243" y="182"/>
      <point x="365" y="131"/>
    </contour>
    <contour>
      <point x="159" y="38" type="curve" smooth="yes"/>
      <point x="192" y="38"/>
      <point x="221" y="62"/>
      <point x="221" y="99" type="curve" smooth="yes"/>
      <point x="221" y="136"/>
      <point x="193" y="161"/>
      <point x="159" y="161" type="curve" smooth="yes"/>
      <point x="124" y="161"/>
      <point x="96" y="136"/>
      <point x="96" y="99" type="curve" smooth="yes"/>
      <point x="96" y="63"/>
      <point x="125" y="38"/>
    </contour>
    <contour>
      <point x="515" y="-320" type="line"/>
      <point x="526" y="-317" type="line"/>
      <point x="526" y="221" type="line"/>
      <point x="411" y="221" type="line"/>
      <point x="411" y="-209" type="line"/>
      <point x="430" y="-193" type="line"/>
      <point x="396" y="-112"/>
      <point x="296" y="-74"/>
      <point x="201" y="-59" type="curve"/>
      <point x="223" y="-117" type="line"/>
      <point x="286" y="-77"/>
      <point x="376" y="-44"/>
      <point x="433" y="-27" type="curve"/>
      <point x="428" y="114" type="line"/>
      <point x="301" y="79"/>
      <point x="208" y="44"/>
      <point x="112" y="-15" type="curve"/>
      <point x="181" y="-163" type="line"/>
      <point x="288" y="-172"/>
      <point x="387" y="-207"/>
      <point x="432" y="-274" type="curve"/>
    </contour>
    <contour>
      <point x="411" y="130" type="line"/>
      <point x="430" y="147" type="line"/>
      <point x="360" y="243"/>
      <point x="249" y="272"/>
      <point x="156" y="295" type="curve"/>
      <point x="171" y="213" type="line"/>
      <point x="234" y="260"/>
      <point x="312" y="307"/>
      <point x="388" y="347" type="curve"/>
      <point x="330" y="438"/>
      <point x="255" y="509"/>
      <point x="133" y="564" type="curve"/>
      <point x="128" y="536" type="line"/>
      <point x="411" y="536" type="line"/>
    </contour>
  </outline>
</glyph>
<glyph name="yNukta_ra-beng" format="2">
  <advance width="737"/>
  <anchor x="656" y="-179" name="bottom"/>
  <anchor x="657" y="-210" name="bottom.rvocalic"/>
  <anchor x="637" y="-190" name="bottom.virama"/>
  <anchor x="622" y="592" name="top"/>
  <anchor x="623" y="572" name="topright"/>
  <outline>
    <contour>
      <point x="646" y="-241" type="line"/>
      <point x="657" y="-238" type="line"/>
      <point x="657" y="571" type="line"/>
      <point x="542" y="571" type="line"/>
      <point x="542" y="123" type="line"/>
      <point x="561" y="125" type="line"/>
      <point x="497" y="232"/>
      <point x="373" y="281"/>
      <point x="282" y="299" type="curve"/>
      <point x="296" y="216" type="line"/>
      <point x="359" y="263"/>
      <point x="432" y="309"/>
      <point x="508" y="349" type="curve"/>
      <point x="457" y="441"/>
      <point x="397" y="498"/>
      <point x="261" y="565" type="curve"/>
      <point x="256" y="536" type="line"/>
      <point x="776" y="536" type="line"/>
      <point x="728" y="622" type="line"/>
      <point x="-39" y="622" type="line"/>
      <point x="10" y="536" type="line"/>
      <point x="136" y="536" type="line"/>
      <point x="100" y="553" type="line"/>
      <point x="161" y="442" type="line"/>
      <point x="250" y="437"/>
      <point x="343" y="422"/>
      <point x="372" y="405" type="curve"/>
      <point x="364" y="431" type="line"/>
      <point x="320" y="419"/>
      <point x="208" y="358"/>
      <point x="172" y="333" type="curve"/>
      <point x="241" y="188" type="line"/>
      <point x="360" y="182"/>
      <point x="505" y="123"/>
      <point x="560" y="47" type="curve"/>
      <point x="542" y="103" type="line"/>
      <point x="546" y="18"/>
      <point x="552" y="-35"/>
      <point x="561" y="-106" type="curve"/>
      <point x="511" y="-25"/>
      <point x="453" y="5"/>
      <point x="389" y="5" type="curve" smooth="yes"/>
      <point x="344" y="5"/>
      <point x="315" y="0"/>
      <point x="255" y="0" type="curve" smooth="yes"/>
      <point x="178" y="0"/>
      <point x="131" y="38"/>
      <point x="131" y="118" type="curve" smooth="yes"/>
      <point x="131" y="143"/>
      <point x="134" y="169"/>
      <point x="144" y="206" type="curve"/>
      <point x="83" y="215" type="line"/>
      <point x="64" y="164"/>
      <point x="57" y="116"/>
      <point x="57" y="66" type="curve" smooth="yes"/>
      <point x="57" y="-91"/>
      <point x="145" y="-152"/>
      <point x="259" y="-152" type="curve" smooth="yes"/>
      <point x="321" y="-152"/>
      <point x="378" y="-141"/>
      <point x="433" y="-141" type="curve" smooth="yes"/>
      <point x="495" y="-141"/>
      <point x="542" y="-160"/>
      <point x="578" y="-205" type="curve"/>
    </contour>
    <contour>
      <point x="330" y="13" type="curve" smooth="yes"/>
      <point x="368" y="13"/>
      <point x="401" y="42"/>
      <point x="401" y="85" type="curve" smooth="yes"/>
      <point x="401" y="127"/>
      <point x="370" y="156"/>
      <point x="330" y="156" type="curve" smooth="yes"/>
      <point x="289" y="156"/>
      <point x="258" y="127"/>
      <point x="258" y="85" type="curve" smooth="yes"/>
      <point x="258" y="43"/>
      <point x="291" y="13"/>
    </contour>
  </outline>
</glyph>
